<svg width="103" height="17" viewBox="0 0 103 17" fill="none" xmlns="http://www.w3.org/2000/svg">
<g id="Group">
<path id="Vector" d="M5.98235 0.870407C5.01471 1.03511 3.93235 1.58805 2.73823 2.48805C0.911764 4.12041 0 6.09982 0 8.4057C0 9.47335 0.2 10.4851 0.602941 11.4292C1.42647 13.3204 2.79118 14.7498 4.69706 15.5792C5.55 16.0086 6.85882 16.291 8.62941 16.291H15.2324V13.2763H8.28529C7.32647 13.2763 6.57059 13.091 6.01765 12.8381C5.51765 12.6586 4.97941 12.2645 4.40588 11.7116C3.53235 10.6881 3.09412 9.57629 3.09412 8.40864C3.09412 8.07335 3.14706 7.66452 3.25588 7.19688C3.74412 5.82041 4.44412 4.85864 5.36176 4.37923C6.03529 3.89982 7.02353 3.62335 8.32647 3.62335H15.2324V0.608643H8.76765C7.40588 0.608643 6.47941 0.720407 5.98529 0.870407H5.98235Z" fill="white"/>
<path id="Vector_2" d="M15.2324 6.94385H7.23828V9.95855H15.2324V6.94385Z" fill="white"/>
<path id="Vector_3" d="M29.8085 0.608643L25.3174 5.99099L20.8262 0.608643H17.3232L23.4262 8.45276L17.3232 16.2939H20.8262L25.3174 10.9116L29.8085 16.2939H33.3085L27.2085 8.45276L33.3321 0.608643H29.8085Z" fill="white"/>
<path id="Vector_4" d="M57.5527 0.870407C56.585 1.03511 55.5027 1.58805 54.3085 2.48805C52.4821 4.12041 51.5703 6.09982 51.5703 8.4057C51.5703 9.47335 51.7703 10.4851 52.1733 11.4292C52.9968 13.3204 54.3615 14.7498 56.2674 15.5792C57.1203 16.0086 58.4291 16.291 60.1997 16.291H66.9615V13.2763H59.8556C58.8968 13.2763 58.1409 13.091 57.588 12.8381C57.088 12.6586 56.5497 12.2645 55.9762 11.7116C55.1027 10.6881 54.6644 9.57629 54.6644 8.40864C54.6644 8.07335 54.7174 7.66452 54.8262 7.19688C55.3144 5.82041 56.0144 4.85864 56.9321 4.37923C57.6056 3.89982 58.5938 3.62335 59.8968 3.62335H66.9585V0.608643H60.338C58.9762 0.608643 58.0497 0.720407 57.5556 0.870407H57.5527Z" fill="white"/>
<path id="Vector_5" d="M66.959 6.94385H58.9648V9.95855H66.959V6.94385Z" fill="white"/>
<path id="Vector_6" d="M94.3027 0.549805C89.8851 0.549805 86.3027 4.13216 86.3027 8.54981C86.3027 12.9675 89.8851 16.5498 94.3027 16.5498C98.7204 16.5498 102.303 12.9675 102.303 8.54981C102.303 4.13216 98.7204 0.549805 94.3027 0.549805ZM94.3027 13.4822C91.5792 13.4822 89.3704 11.2733 89.3704 8.54981C89.3704 5.82628 91.5792 3.61745 94.3027 3.61745C97.0263 3.61745 99.2351 5.82628 99.2351 8.54981C99.2351 11.2733 97.0263 13.4822 94.3027 13.4822Z" fill="white"/>
<path id="Vector_7" d="M39.4387 4.59687C40.1975 3.97334 41.2858 3.62628 42.7034 3.62628H49.9152V0.611572H44.4122C42.3211 0.611572 41.124 0.693927 40.824 0.788045C39.9711 0.888045 39.024 1.26157 37.9769 1.8704C37.3975 2.22922 36.777 2.7851 36.1181 3.52334C34.9564 4.96451 34.377 6.60569 34.377 8.43804C34.377 9.51157 34.5858 10.5292 35.0005 11.4822C35.8181 13.338 37.1593 14.7439 39.0299 15.5675C39.8975 16.0116 41.2299 16.2998 43.0269 16.2998H49.9152V13.2851H42.7034C41.9152 13.2851 41.3122 13.1557 40.8975 13.0204C39.774 12.641 38.9534 12.0439 38.4358 11.291C37.7975 10.338 37.4799 9.39687 37.4799 8.49393C37.4799 7.59099 37.7564 6.68216 38.3064 5.79981C38.6417 5.29098 39.0181 4.86745 39.4358 4.60275L39.4387 4.59687Z" fill="white"/>
<path id="Vector_8" d="M82.5966 3.53805C81.9437 2.79982 81.329 2.24394 80.7495 1.88511C79.6907 1.27629 78.7378 0.885113 77.8907 0.785113C77.5819 0.690995 76.3878 0.608643 74.3025 0.608643H68.6172V3.62335H76.0231C77.4348 3.62335 78.5201 3.96746 79.279 4.59099C79.6937 4.8557 80.0731 5.25864 80.4172 5.76746C80.9701 6.64982 81.2437 7.55276 81.2437 8.46158C81.2437 9.37041 80.926 10.2969 80.2878 11.2469C79.7642 11.9998 78.9407 12.6292 77.8172 13.0086C77.3937 13.1439 76.7966 13.2763 76.0231 13.2763H68.6172V16.291H75.6878C77.4848 16.291 78.8172 16.0028 79.6848 15.5586C81.5554 14.7351 82.8966 13.3616 83.7142 11.5086C84.1289 10.5557 84.3378 9.52629 84.3378 8.45276C84.3378 6.62041 83.7584 4.97335 82.5966 3.53511V3.53805Z" fill="white"/>
</g>
</svg>
