<svg width="254" height="18" viewBox="0 0 254 18" fill="none" xmlns="http://www.w3.org/2000/svg">
<path fill-rule="evenodd" clip-rule="evenodd" d="M112.663 18L112.663 1.06086e-07L115.09 0L115.09 18L112.663 18Z" fill="white"/>
<path d="M5.96348 1.31809C4.99889 1.48153 3.91995 2.0302 2.7296 2.92324C0.908888 4.54299 0 6.50711 0 8.79518C0 9.85458 0.199369 10.8585 0.601039 11.7953C1.42197 13.6719 2.78237 15.0903 4.68224 15.9133C5.53249 16.3394 6.83719 16.6196 8.60219 16.6196H15.1843V13.6281H8.25916C7.30336 13.6281 6.54986 13.4443 5.99866 13.1933C5.50024 13.0153 4.9637 12.6242 4.39198 12.0755C3.52121 11.0599 3.08436 9.95672 3.08436 8.79809C3.08436 8.46539 3.13713 8.05972 3.24561 7.59569C3.73231 6.22985 4.4301 5.27552 5.34485 4.79981C6.01626 4.3241 7.00137 4.04977 8.3002 4.04977H15.1843V1.05835H8.73999C7.38252 1.05835 6.45897 1.16925 5.96641 1.31809H5.96348Z" fill="white"/>
<path d="M15.1837 7.3457H7.21484V10.3371H15.1837V7.3457Z" fill="white"/>
<path d="M29.7154 1.05859L25.2384 6.39937L20.7614 1.05859H17.2695L23.3532 8.84212L17.2695 16.6227H20.7614L25.2384 11.2819L29.7154 16.6227H33.2044L27.1236 8.84212L33.2279 1.05859H29.7154Z" fill="white"/>
<path d="M57.3717 1.31834C56.4071 1.48177 55.3282 2.03044 54.1378 2.92349C52.3171 4.54323 51.4082 6.50735 51.4082 8.79542C51.4082 9.85482 51.6076 10.8588 52.0092 11.7956C52.8302 13.6722 54.1906 15.0905 56.0904 15.9135C56.9407 16.3396 58.2454 16.6198 60.0104 16.6198H66.7508V13.6284H59.6674C58.7116 13.6284 57.9581 13.4445 57.4069 13.1935C56.9084 13.0155 56.3719 12.6244 55.8002 12.0758C54.9294 11.0601 54.4926 9.95697 54.4926 8.79834C54.4926 8.46563 54.5453 8.05997 54.6538 7.59593C55.1405 6.2301 55.8383 5.27576 56.7531 4.80005C57.4245 4.32435 58.4096 4.05001 59.7084 4.05001H66.7479V1.05859H60.1482C58.7907 1.05859 57.8672 1.16949 57.3746 1.31834H57.3717Z" fill="white"/>
<path d="M66.7482 7.3457H58.7793V10.3371H66.7482V7.3457Z" fill="white"/>
<path d="M94.006 1C89.6023 1 86.0312 4.55468 86.0312 8.9382C86.0312 13.3217 89.6023 16.8764 94.006 16.8764C98.4097 16.8764 101.981 13.3217 101.981 8.9382C101.981 4.55468 98.4097 1 94.006 1ZM94.006 13.8325C91.2911 13.8325 89.0892 11.6407 89.0892 8.9382C89.0892 6.23571 91.2911 4.04395 94.006 4.04395C96.721 4.04395 98.9228 6.23571 98.9228 8.9382C98.9228 11.6407 96.721 13.8325 94.006 13.8325Z" fill="white"/>
<path d="M39.3134 5.01506C40.0698 4.39634 41.1546 4.05196 42.5678 4.05196H49.7568V1.06055H44.2712C42.1866 1.06055 40.9934 1.14227 40.6943 1.23566C39.844 1.33488 38.9 1.70553 37.8562 2.30965C37.2786 2.6657 36.66 3.21729 36.0033 3.94982C34.8452 5.37986 34.2676 7.00836 34.2676 8.82656C34.2676 9.8918 34.4757 10.9016 34.8891 11.8472C35.7042 13.6887 37.0412 15.0837 38.9058 15.9009C39.7708 16.3416 41.0989 16.6276 42.8903 16.6276H49.7568V13.6362H42.5678C41.782 13.6362 41.181 13.5078 40.7676 13.3735C39.6476 12.997 38.8296 12.4046 38.3136 11.6575C37.6774 10.7119 37.3607 9.77798 37.3607 8.88201C37.3607 7.98605 37.6363 7.08424 38.1846 6.2087C38.5188 5.70381 38.8941 5.28355 39.3104 5.02089L39.3134 5.01506Z" fill="white"/>
<path d="M82.3357 3.96538C81.6848 3.23284 81.0721 2.68125 80.4945 2.3252C79.439 1.72108 78.4891 1.33293 77.6447 1.2337C77.3368 1.14031 76.1465 1.05859 74.0677 1.05859H68.4004V4.05001H75.7829C77.1902 4.05001 78.2721 4.39147 79.0285 5.01018C79.4419 5.27284 79.8201 5.67267 80.1632 6.17756C80.7144 7.0531 80.987 7.94907 80.987 8.85087C80.987 9.75267 80.6704 10.672 80.0342 11.6146C79.5123 12.3618 78.6914 12.9863 77.5714 13.3628C77.1492 13.4971 76.554 13.6284 75.7829 13.6284H68.4004V16.6198H75.4487C77.2401 16.6198 78.5682 16.3338 79.4331 15.8931C81.2978 15.0759 82.6348 13.713 83.4498 11.8744C83.8632 10.9288 84.0714 9.90735 84.0714 8.84212C84.0714 7.02392 83.4938 5.38958 82.3357 3.96246V3.96538Z" fill="white"/>
<path d="M103.352 1.06055C103.571 1.06055 103.786 1.116 103.997 1.22982C104.208 1.34364 104.369 1.50415 104.486 1.71428C104.604 1.92441 104.662 2.1433 104.662 2.37094C104.662 2.59857 104.604 2.81162 104.489 3.01883C104.375 3.22604 104.211 3.38656 104.002 3.5033C103.794 3.61712 103.577 3.67548 103.349 3.67548C103.12 3.67548 102.903 3.61712 102.695 3.5033C102.487 3.38948 102.325 3.22604 102.208 3.01883C102.091 2.81162 102.035 2.59566 102.035 2.37094C102.035 2.14621 102.094 1.92441 102.211 1.71428C102.328 1.50415 102.493 1.34364 102.704 1.22982C102.915 1.116 103.129 1.06055 103.349 1.06055H103.352ZM103.352 1.27651C103.167 1.27651 102.988 1.32321 102.812 1.4166C102.636 1.50999 102.501 1.64424 102.402 1.82226C102.302 1.99737 102.252 2.17832 102.252 2.36802C102.252 2.55772 102.299 2.73866 102.399 2.91085C102.495 3.08304 102.63 3.21729 102.806 3.3136C102.979 3.4099 103.161 3.45952 103.352 3.45952C103.542 3.45952 103.724 3.41282 103.897 3.3136C104.07 3.21729 104.208 3.08304 104.302 2.91085C104.398 2.73866 104.445 2.55772 104.445 2.36802C104.445 2.17832 104.395 1.99737 104.299 1.82226C104.202 1.64716 104.064 1.51291 103.888 1.4166C103.712 1.32321 103.533 1.27651 103.349 1.27651H103.352ZM102.774 3.09471V1.68218H103.264C103.431 1.68218 103.551 1.69385 103.627 1.72012C103.703 1.74638 103.762 1.79308 103.806 1.85729C103.85 1.92149 103.873 1.99154 103.873 2.0645C103.873 2.16664 103.835 2.25711 103.762 2.33591C103.689 2.41179 103.589 2.45557 103.466 2.46433C103.516 2.48476 103.557 2.51102 103.586 2.5402C103.645 2.59565 103.712 2.68905 103.797 2.82038L103.97 3.09763H103.695L103.569 2.87583C103.469 2.70072 103.387 2.58982 103.325 2.54604C103.284 2.51394 103.223 2.49935 103.14 2.49935H103.006V3.09763H102.777L102.774 3.09471ZM103.003 2.30089H103.287C103.422 2.30089 103.516 2.28046 103.563 2.24252C103.613 2.20166 103.636 2.14913 103.636 2.08493C103.636 2.04407 103.624 2.00613 103.601 1.97111C103.577 1.939 103.545 1.91274 103.501 1.89523C103.46 1.87771 103.381 1.87188 103.267 1.87188H103.003V2.30089Z" fill="white"/>
<path d="M243.436 16V2H248.456C249.562 2 250.476 2.19333 251.196 2.58C251.929 2.95333 252.469 3.46 252.816 4.1C253.176 4.72667 253.356 5.44 253.356 6.24C253.356 6.98667 253.182 7.68 252.836 8.32C252.489 8.96 251.949 9.47333 251.216 9.86C250.482 10.2467 249.542 10.44 248.396 10.44H245.836V16H243.436ZM250.736 16L247.796 9.82H250.396L253.476 16H250.736ZM245.836 8.66H248.296C249.189 8.66 249.842 8.44667 250.256 8.02C250.682 7.58 250.896 7.00667 250.896 6.3C250.896 5.60667 250.689 5.05333 250.276 4.64C249.862 4.21333 249.202 4 248.296 4H245.836V8.66Z" fill="#EF6320"/>
<path d="M231.873 16V2H240.913V3.94H234.273V7.96H240.313V9.86H234.273V14.06H240.913V16H231.873Z" fill="#EF6320"/>
<path d="M223.395 16V3.94H219.275V2H229.895V3.94H225.775V16H223.395Z" fill="#EF6320"/>
<path d="M213.096 16.24C212.083 16.24 211.183 16.06 210.396 15.7C209.61 15.34 208.996 14.8267 208.556 14.16C208.116 13.4933 207.89 12.7 207.876 11.78H210.416C210.416 12.2467 210.523 12.6667 210.736 13.04C210.963 13.4 211.27 13.6867 211.656 13.9C212.056 14.1133 212.536 14.22 213.096 14.22C213.576 14.22 213.99 14.1467 214.336 14C214.696 13.84 214.97 13.62 215.156 13.34C215.356 13.0467 215.456 12.7067 215.456 12.32C215.456 11.88 215.35 11.52 215.136 11.24C214.936 10.9467 214.656 10.7 214.296 10.5C213.936 10.3 213.523 10.1267 213.056 9.98001C212.59 9.82001 212.096 9.65334 211.576 9.48001C210.47 9.10668 209.636 8.63334 209.076 8.06001C208.516 7.47334 208.236 6.69334 208.236 5.72001C208.236 4.90668 208.43 4.20668 208.816 3.62001C209.203 3.03334 209.743 2.58001 210.436 2.26001C211.143 1.92668 211.956 1.76001 212.876 1.76001C213.81 1.76001 214.623 1.92668 215.316 2.26001C216.023 2.59334 216.576 3.06001 216.976 3.66001C217.39 4.24668 217.603 4.95334 217.616 5.78001H215.056C215.043 5.43334 214.95 5.11334 214.776 4.82001C214.603 4.51334 214.35 4.26668 214.016 4.08001C213.696 3.88001 213.303 3.78001 212.836 3.78001C212.436 3.76668 212.076 3.83334 211.756 3.98001C211.45 4.11334 211.203 4.31334 211.016 4.58001C210.843 4.83334 210.756 5.15334 210.756 5.54001C210.756 5.91334 210.836 6.22668 210.996 6.48001C211.17 6.72001 211.416 6.92668 211.736 7.10001C212.056 7.26001 212.43 7.41334 212.856 7.56001C213.283 7.70668 213.75 7.86668 214.256 8.04001C214.95 8.26668 215.576 8.54668 216.136 8.88001C216.71 9.20001 217.163 9.62001 217.496 10.14C217.83 10.66 217.996 11.3333 217.996 12.16C217.996 12.88 217.81 13.5533 217.436 14.18C217.063 14.7933 216.516 15.2933 215.796 15.68C215.076 16.0533 214.176 16.24 213.096 16.24Z" fill="#EF6320"/>
<path d="M193.551 16L198.671 2H201.351L206.471 16H203.931L199.991 4.8L196.051 16H193.551ZM195.831 12.7L196.471 10.8H203.371L204.011 12.7H195.831Z" fill="#EF6320"/>
<path d="M177.01 16V2H179.85L184.33 11.04L188.77 2H191.63V16H189.23V6.12L185.27 14.04H183.39L179.41 6.14V16H177.01Z" fill="#EF6320"/>
<path d="M165.447 16V2H174.487V3.94H167.847V7.96H173.887V9.86H167.847V14.06H174.487V16H165.447Z" fill="#EF6320"/>
<path d="M151.092 16V2H153.492L160.232 12.12V2H162.632V16H160.232L153.492 5.9V16H151.092Z" fill="#EF6320"/>
<path d="M141.847 16.24C140.5 16.24 139.307 15.94 138.267 15.34C137.24 14.7267 136.433 13.88 135.847 12.8C135.26 11.7067 134.967 10.44 134.967 9.00001C134.967 7.57334 135.26 6.32001 135.847 5.24001C136.433 4.14668 137.24 3.29334 138.267 2.68001C139.307 2.06668 140.5 1.76001 141.847 1.76001C143.22 1.76001 144.427 2.06668 145.467 2.68001C146.507 3.29334 147.313 4.14668 147.887 5.24001C148.46 6.32001 148.747 7.57334 148.747 9.00001C148.747 10.44 148.46 11.7067 147.887 12.8C147.313 13.88 146.507 14.7267 145.467 15.34C144.427 15.94 143.22 16.24 141.847 16.24ZM141.867 14.08C142.76 14.08 143.54 13.88 144.207 13.48C144.873 13.0667 145.387 12.48 145.747 11.72C146.107 10.96 146.287 10.0533 146.287 9.00001C146.287 7.94668 146.107 7.04001 145.747 6.28001C145.387 5.52001 144.873 4.94001 144.207 4.54001C143.54 4.12668 142.76 3.92001 141.867 3.92001C140.973 3.92001 140.193 4.12668 139.527 4.54001C138.86 4.94001 138.34 5.52001 137.967 6.28001C137.607 7.04001 137.427 7.94668 137.427 9.00001C137.427 10.0533 137.607 10.96 137.967 11.72C138.34 12.48 138.86 13.0667 139.527 13.48C140.193 13.88 140.973 14.08 141.867 14.08Z" fill="#EF6320"/>
<path d="M124.05 16V14.16L130.65 4.02H124.09V2H133.43V3.84L126.79 13.98H133.47V16H124.05Z" fill="#EF6320"/>
</svg>
