<svg width="759" height="448" viewBox="0 0 759 448" fill="none" xmlns="http://www.w3.org/2000/svg">
<path d="M250.139 11.8935C209.84 18.7478 164.765 41.7587 115.035 79.2127C38.971 147.144 1 229.518 1 325.478C1 369.909 9.32916 412.014 26.1099 451.304C60.4063 530.006 117.24 589.492 196.612 624.008C232.133 641.879 286.64 653.629 360.377 653.629H641.975V528.17H346.046C306.115 528.17 274.636 520.459 251.609 509.933C230.786 502.467 208.371 486.065 184.486 463.054C148.107 420.46 129.856 374.193 129.856 325.601C129.856 311.647 132.061 294.634 136.593 275.173C156.926 217.89 186.078 177.866 224.294 157.915C252.343 137.964 293.499 126.458 347.761 126.458H641.852V1H366.134C309.422 1 270.839 5.65114 250.261 11.8935H250.139Z" stroke="#B1491D" stroke-width="1.8" stroke-linecap="round" stroke-linejoin="round"/>
<path d="M640.915 264.806H308.244V390.882H640.915V264.806Z" stroke="#B1491D" stroke-width="1.8" stroke-linecap="round" stroke-linejoin="round"/>
<path d="M642 1L778.076 137.076" stroke="#B1491D" stroke-width="1.8" stroke-linecap="round" stroke-linejoin="round"/>
<path d="M642 126.5L778 262.5" stroke="#B1491D" stroke-width="1.8" stroke-linecap="round" stroke-linejoin="round"/>
<path d="M641 265L777.076 401.076" stroke="#B1491D" stroke-width="1.8" stroke-linecap="round" stroke-linejoin="round"/>
<path d="M641 391L777.076 527.076" stroke="#B1491D" stroke-width="1.8" stroke-linecap="round" stroke-linejoin="round"/>
<path d="M310 266L572 528" stroke="#B1491D" stroke-width="1.8" stroke-linecap="round" stroke-linejoin="round"/>
<path d="M309 391L445 528" stroke="#B1491D" stroke-width="1.8" stroke-linecap="round" stroke-linejoin="round"/>
</svg>
